<svg xmlns="http://www.w3.org/2000/svg" width="28" height="28" fill="none" xmlns:v="https://vecta.io/nano"><path d="M2.604 4.296a2.63 2.63 0 0 1 2.631-2.631h18.417a2.63 2.63 0 0 1 2.631 2.631v18.417a2.63 2.63 0 0 1-2.631 2.631H5.234a2.63 2.63 0 0 1-2.631-2.631V4.296z" fill="#cb6602"/><path d="M4.576 3.639v19.732h19.732V3.639H4.576zm9.663 14.47l-.501-1.914h-2.576l-.501 1.914H8.664l2.922-9.352h1.728l2.942 9.352h-2.017zm4.709 0h-1.824v-6.95h1.824v6.95zm-.196-8.055c-.178.184-.418.276-.723.276s-.545-.092-.723-.276-.266-.416-.266-.694a.94.94 0 0 1 .27-.694c.18-.18.42-.27.72-.27s.539.09.72.27.27.411.27.694a.96.96 0 0 1-.266.694z" fill="#291100"/><path d="M11.574 14.621h1.747l-.873-3.333-.873 3.333z" fill="#1c0802"/></svg>