<svg xmlns="http://www.w3.org/2000/svg" width="28" height="28" fill="none" xmlns:v="https://vecta.io/nano"><g clip-path="url(#A)"><g clip-path="url(#B)"><path d="M8.975 27.143c2.465 0 4.465-2.021 4.465-4.51v-4.51H8.975c-2.465 0-4.465 2.021-4.465 4.51s2 4.51 4.465 4.51z" fill="#0acf83"/><path d="M4.51 13.612c0-2.49 2-4.51 4.465-4.51h4.465v9.02H8.975c-2.465 0-4.465-2.021-4.465-4.51z" fill="#a259ff"/><path d="M4.51 4.592c0-2.49 2-4.51 4.465-4.51h4.465v9.02H8.975c-2.465 0-4.465-2.021-4.465-4.51z" fill="#f24e1e"/><path d="M13.44.082h4.465c2.465 0 4.465 2.021 4.465 4.51s-2 4.51-4.465 4.51H13.44V.082z" fill="#ff7262"/><path d="M22.37 13.612c0 2.49-2 4.51-4.465 4.51s-4.465-2.021-4.465-4.51 2-4.51 4.465-4.51 4.465 2.021 4.465 4.51z" fill="#1abcfe"/></g></g><defs><clipPath id="A"><path fill="#fff" transform="translate(0 .082)" d="M0 0h27.061v27.061H0z"/></clipPath><clipPath id="B"><path fill="#fff" transform="translate(4.51 .082)" d="M0 0h17.86v27.061H0z"/></clipPath></defs></svg>